<?xml version="1.0" encoding="UTF-8"?>
<svg width="16px" height="14px" viewBox="0 0 16 14" version="1.1" xmlns="http://www.w3.org/2000/svg" xmlns:xlink="http://www.w3.org/1999/xlink">
    <g id="Version-2" stroke="none" stroke-width="1" fill="none" fill-rule="evenodd">
        <g id="Home---SR" transform="translate(-629.000000, -1417.000000)" fill="#ffffff">
            <g id="Group-Copy-2" transform="translate(282.500000, 1228.000000)">
                <g id="Group-3-Copy-4">
                    <g id="bt-4" transform="translate(342.500000, 183.000000)">
                        <g id="ico-cloud-download" transform="translate(4.000000, 6.000000)">
                            <path d="M12.8706625,2.69491525 C14.5867508,2.69491525 16,4.11864407 16,5.84745763 C16,7.62711864 14.5867508,9 12.8706625,9 L2.87697161,9 C1.31230284,9 0,7.93220339 0,6.30508475 C0,4.72881356 1.31230284,3.45762712 2.87697161,3.45762712 C3.02839117,3.45762712 3.17981073,3.45762712 3.33123028,3.45762712 C3.38170347,2.03389831 4.54258675,0.915254237 5.95583596,0.915254237 C6.61198738,0.915254237 7.21766562,1.16949153 7.67192429,1.57627119 C8.12618297,0.610169492 9.03470032,0 10.1451104,0 C11.6088328,0 12.8201893,1.22033898 12.8706625,2.69491525 L12.8706625,2.69491525 Z" id="Path"></path>
                            <polygon id="Path-3" stroke="#ffffff" points="6.49929153 7.24794679 9.66006803 7.24794679 9.66006803 10.1373582 11 10.1373582 8 13.2479468 5 10.1373582 6.49929153 10.1373582"></polygon>
                        </g>
                    </g>
                </g>
            </g>
        </g>
    </g>
</svg>